<svg width="150" height="40" viewBox="0 0 150 40" fill="none" xmlns="http://www.w3.org/2000/svg">
<path d="M0 20C0 10.5719 0 5.85786 2.92893 2.92893C5.85786 0 10.5719 0 20 0C29.4281 0 34.1421 0 37.0711 2.92893C40 5.85786 40 10.5719 40 20C40 29.4281 40 34.1421 37.0711 37.0711C34.1421 40 29.4281 40 20 40C10.5719 40 5.85786 40 2.92893 37.0711C0 34.1421 0 29.4281 0 20Z" fill="#242945"/>
<path d="M24.0007 24.7173C24.553 24.7173 25.0108 25.1462 24.9011 25.6598C24.7072 26.5668 24.2362 27.4075 23.5362 28.0716C22.5986 28.9613 21.3268 29.4611 20.0007 29.4611C18.6746 29.4611 17.4029 28.9613 16.4652 28.0716C15.7652 27.4075 15.2942 26.5668 15.1004 25.6598C14.9906 25.1462 15.4484 24.7173 16.0007 24.7173H24.0007Z" fill="#F0F0FA"/>
<path d="M32.9167 15.4532C33.469 15.4532 33.9268 15.4077 33.8171 15.9213C33.6232 16.8283 33.1522 17.669 32.4522 18.3331C31.5146 19.2228 30.2428 19.7226 28.9167 19.7226C27.5906 19.7226 26.3189 19.2228 25.3812 18.3331C24.6812 17.669 24.2102 16.8283 24.0164 15.9213C23.9066 15.4077 24.3644 15.4532 24.9167 15.4532L26.4179 16.1508C28.052 16.9101 29.9408 16.8949 31.5624 16.1093L32.9167 15.4532Z" fill="#F0F0FA"/>
<circle cx="11" cy="16.0479" r="4" fill="#F0F0FA"/>
<path d="M52.338 18.0252H48.792L50.862 12.9492H53.202L52.338 18.0252ZM60.4687 22.6332V25.6392H58.9387C56.3587 25.6392 55.0687 24.3612 55.0687 21.8052V18.4752H53.8267V15.5412H55.0687V13.0932H58.6147V15.5412H60.4507V18.4752H58.6147V21.8592C58.6147 22.1352 58.6747 22.3332 58.7947 22.4532C58.9267 22.5732 59.1427 22.6332 59.4427 22.6332H60.4687ZM72.2388 15.5412L65.8308 30.4452H61.9968L64.4088 25.2072L60.2688 15.5412H64.1928L66.3168 21.2652L68.3688 15.5412H72.2388ZM79.4691 25.7652C78.5571 25.7652 77.7411 25.6152 77.0211 25.3152C76.3131 25.0032 75.7491 24.5832 75.3291 24.0552C74.9211 23.5152 74.6931 22.9092 74.6451 22.2372H78.0651C78.1131 22.5612 78.2631 22.8132 78.5151 22.9932C78.7671 23.1732 79.0791 23.2632 79.4511 23.2632C79.7391 23.2632 79.9671 23.2032 80.1351 23.0832C80.3031 22.9632 80.3871 22.8072 80.3871 22.6152C80.3871 22.3632 80.2491 22.1772 79.9731 22.0572C79.6971 21.9372 79.2411 21.8052 78.6051 21.6612C77.8851 21.5172 77.2851 21.3552 76.8051 21.1752C76.3251 20.9952 75.9051 20.7012 75.5451 20.2932C75.1971 19.8852 75.0231 19.3332 75.0231 18.6372C75.0231 18.0372 75.1851 17.4972 75.5091 17.0172C75.8331 16.5252 76.3071 16.1352 76.9311 15.8472C77.5671 15.5592 78.3291 15.4152 79.2171 15.4152C80.5371 15.4152 81.5751 15.7392 82.3311 16.3872C83.0871 17.0352 83.5251 17.8872 83.6451 18.9432H80.4591C80.3991 18.6192 80.2551 18.3732 80.0271 18.2052C79.8111 18.0252 79.5171 17.9352 79.1451 17.9352C78.8571 17.9352 78.6351 17.9892 78.4791 18.0972C78.3351 18.2052 78.2631 18.3552 78.2631 18.5472C78.2631 18.7872 78.4011 18.9732 78.6771 19.1052C78.9531 19.2252 79.3971 19.3512 80.0091 19.4832C80.7411 19.6392 81.3471 19.8132 81.8271 20.0052C82.3191 20.1972 82.7451 20.5092 83.1051 20.9412C83.4771 21.3612 83.6631 21.9372 83.6631 22.6692C83.6631 23.2572 83.4891 23.7852 83.1411 24.2532C82.8051 24.7212 82.3191 25.0932 81.6831 25.3692C81.0591 25.6332 80.3211 25.7652 79.4691 25.7652ZM95.5495 15.5412L89.1415 30.4452H85.3075L87.7195 25.2072L83.5795 15.5412H87.5035L89.6275 21.2652L91.6795 15.5412H95.5495ZM101.808 18.0252H98.2618L100.332 12.9492H102.672L101.808 18.0252ZM110.586 15.4512C111.75 15.4512 112.674 15.8412 113.358 16.6212C114.042 17.3892 114.384 18.4332 114.384 19.7532V25.6392H110.856V20.2212C110.856 19.6452 110.706 19.1952 110.406 18.8712C110.106 18.5352 109.704 18.3672 109.2 18.3672C108.672 18.3672 108.258 18.5352 107.958 18.8712C107.658 19.1952 107.508 19.6452 107.508 20.2212V25.6392H103.98V15.5412H107.508V16.9812C107.82 16.5252 108.24 16.1592 108.768 15.8832C109.296 15.5952 109.902 15.4512 110.586 15.4512ZM115.024 20.5812C115.024 19.5372 115.21 18.6252 115.582 17.8452C115.966 17.0652 116.488 16.4652 117.148 16.0452C117.808 15.6252 118.54 15.4152 119.344 15.4152C119.992 15.4152 120.568 15.5532 121.072 15.8292C121.588 16.0932 121.99 16.4592 122.278 16.9272V12.3192H125.824V25.6392H122.278V24.2352C122.002 24.7032 121.612 25.0752 121.108 25.3512C120.604 25.6272 120.01 25.7652 119.326 25.7652C118.522 25.7652 117.79 25.5552 117.13 25.1352C116.482 24.7152 115.966 24.1152 115.582 23.3352C115.21 22.5432 115.024 21.6252 115.024 20.5812ZM122.296 20.5812C122.296 19.9332 122.116 19.4232 121.756 19.0512C121.408 18.6792 120.976 18.4932 120.46 18.4932C119.932 18.4932 119.494 18.6792 119.146 19.0512C118.798 19.4112 118.624 19.9212 118.624 20.5812C118.624 21.2292 118.798 21.7452 119.146 22.1292C119.494 22.5012 119.932 22.6872 120.46 22.6872C120.976 22.6872 121.408 22.5012 121.756 22.1292C122.116 21.7572 122.296 21.2412 122.296 20.5812ZM126.539 20.5812C126.539 19.5372 126.725 18.6252 127.097 17.8452C127.481 17.0652 127.997 16.4652 128.645 16.0452C129.305 15.6252 130.037 15.4152 130.841 15.4152C131.537 15.4152 132.137 15.5532 132.641 15.8292C133.145 16.1052 133.535 16.4772 133.811 16.9452V15.5412H137.339V25.6392H133.811V24.2352C133.535 24.7032 133.139 25.0752 132.623 25.3512C132.119 25.6272 131.525 25.7652 130.841 25.7652C130.037 25.7652 129.305 25.5552 128.645 25.1352C127.997 24.7152 127.481 24.1152 127.097 23.3352C126.725 22.5432 126.539 21.6252 126.539 20.5812ZM133.811 20.5812C133.811 19.9332 133.631 19.4232 133.271 19.0512C132.923 18.6792 132.491 18.4932 131.975 18.4932C131.447 18.4932 131.009 18.6792 130.661 19.0512C130.313 19.4112 130.139 19.9212 130.139 20.5812C130.139 21.2292 130.313 21.7452 130.661 22.1292C131.009 22.5012 131.447 22.6872 131.975 22.6872C132.491 22.6872 132.923 22.5012 133.271 22.1292C133.631 21.7572 133.811 21.2412 133.811 20.5812ZM149.501 15.5412L143.093 30.4452H139.259L141.671 25.2072L137.531 15.5412H141.455L143.579 21.2652L145.631 15.5412H149.501Z" fill="#242945"/>
</svg>
