<svg width="157" height="23" viewBox="0 0 157 23" fill="none" xmlns="http://www.w3.org/2000/svg">
<path fill-rule="evenodd" clip-rule="evenodd" d="M118.365 0.0920857C96.2924 0.353551 89.9814 0.52364 77.7345 1.1876C65.0429 1.87566 55.9601 2.56539 41.5486 3.93546C38.2077 4.25308 34.6305 4.5545 30.4368 4.87167C15.0315 6.03676 12.0337 6.34722 7.0536 7.2929C4.58609 7.76156 2.45214 8.08588 1.25612 8.17429C0.192766 8.25278 0 8.30221 0 8.4963C0 8.66782 1.70069 8.8181 2.63089 8.7287C2.96425 8.69678 3.8674 8.6185 4.63798 8.55498C5.40856 8.49135 7.10433 8.3206 8.40634 8.1755C11.4723 7.83366 12.9444 7.72588 18.2137 7.45737C27.072 7.006 33.7637 6.57224 41.9834 5.91665C45.0126 5.675 49.0346 5.35421 50.9212 5.20371C65.2297 4.06218 82.7077 3.04428 93.3877 2.73063C106.348 2.34982 146.583 2.01317 145.903 2.29104C145.634 2.40124 141.03 3.22086 138.27 3.65C135.735 4.04423 131.499 4.61285 126.288 5.25842C123.817 5.56469 120.426 5.98855 118.752 6.20036C112.463 6.99621 110.392 7.24303 106.819 7.62273C90.3583 9.37174 79.4855 10.8958 64.352 13.5752C55.3567 15.1678 47.9838 16.9961 39.7558 19.6745C35.0778 21.1973 34.6221 21.4677 35.0825 22.4481C35.3821 23.086 37.7425 23.1686 42.5031 22.7079C51.2033 21.8661 59.379 21.2131 67.299 20.7276C72.2669 20.4231 72.9249 20.372 77.9761 19.8993C79.8627 19.7228 83.1237 19.4648 85.2229 19.326L89.0396 19.0738L83.9668 18.9744C76.2798 18.8237 68.0339 18.8328 65.3182 18.9951C56.3275 19.5324 51.4373 19.9458 43.4497 20.8441C41.5458 21.0582 39.9396 21.215 39.8803 21.1925C39.3083 20.9752 52.1117 17.6916 58.2196 16.4892C72.0076 13.7747 86.2063 11.7494 108.026 9.3844C110.019 9.16841 114.019 8.6959 116.916 8.33447C119.812 7.97293 124.378 7.40376 127.061 7.06941C137.391 5.78278 140.469 5.30356 150.396 3.43587C156.755 2.23962 156.788 2.22939 156.962 1.44268C157.152 0.577697 156.643 0.185225 155.184 0.0730429C153.797 -0.0336351 127.842 -0.0202069 118.365 0.0920857ZM89.4514 18.9865C89.5716 19.0128 89.7455 19.0118 89.8379 18.9843C89.9303 18.9568 89.8319 18.9352 89.6193 18.9364C89.4068 18.9376 89.3312 18.9602 89.4514 18.9865Z" fill="#3BCDFC"/>
</svg>
